<svg width="19" height="24" viewBox="0 0 19 24" fill="none" xmlns="http://www.w3.org/2000/svg">
<path fill-rule="evenodd" clip-rule="evenodd" d="M19 19.4239C19 23.3774 13.5783 23.8344 9.5012 23.8344L9.20944 23.8342C6.61186 23.8279 0 23.6639 0 19.3999C0 15.5271 5.20383 15.0095 9.24989 14.99L9.79295 14.9896C12.3904 14.9959 19 15.1599 19 19.4239ZM9.5012 16.7886C4.39015 16.7886 1.79924 17.6666 1.79924 19.3999C1.79924 21.1488 4.39015 22.0352 9.5012 22.0352C14.611 22.0352 17.2008 21.1572 17.2008 19.4239C17.2008 17.675 14.611 16.7886 9.5012 16.7886ZM9.5012 0C13.0133 0 15.8693 2.8572 15.8693 6.36932C15.8693 9.88144 13.0133 12.7374 9.5012 12.7374H9.46282C5.95789 12.7266 3.11869 9.86824 3.13064 6.36572C3.13064 2.8572 5.98788 0 9.5012 0ZM9.5012 1.71288C6.93308 1.71288 4.84354 3.8012 4.84354 6.36932C4.83516 8.92904 6.90909 11.0162 9.46641 11.0258L9.5012 11.8822V11.0258C12.0681 11.0258 14.1564 8.93624 14.1564 6.36932C14.1564 3.8012 12.0681 1.71288 9.5012 1.71288Z" fill="black"/>
</svg>
